<?xml version="1.0" encoding="UTF-8"?>
<svg width="125px" height="21px" viewBox="0 0 125 21" version="1.1" xmlns="http://www.w3.org/2000/svg" xmlns:xlink="http://www.w3.org/1999/xlink">
    <!-- Generator: Sketch 61 (89581) - https://sketch.com -->
    <title>Future  dark logo</title>
    <desc>Created with Sketch.</desc>
    <g id="Future-UI-Dashboard" stroke="none" stroke-width="1" fill="none" fill-rule="evenodd">
        <g id="Future--dark-logo" transform="translate(-1.000000, -1.000000)">
            <g id="Group-3-Copy">
                <g id="Group-2">
                    <rect id="Rectangle" fill="#FE8E3C" x="1" y="1" width="6" height="21" rx="3"></rect>
                    <rect id="Rectangle-Copy-3" fill="#801897" transform="translate(11.000000, 15.500000) rotate(65.000000) translate(-11.000000, -15.500000) " x="8" y="5" width="6" height="21" rx="3"></rect>
                    <rect id="Rectangle-Copy-3" fill="#FF2E3F" transform="translate(11.000000, 7.500000) rotate(-65.000000) translate(-11.000000, -7.500000) " x="8" y="-3" width="6" height="21" rx="3"></rect>
                </g>
            </g>
            <path d="M36.9055398,18 L36.9055398,12.5923295 L42.2301136,12.5923295 L42.2301136,10.3103693 L36.9055398,10.3103693 L36.9055398,7.19105114 L42.8053977,7.19105114 L42.8053977,4.90909091 L34.1377841,4.90909091 L34.1377841,18 L36.9055398,18 Z M50.0936092,18.1853693 C51.1759956,18.1853693 52.124149,17.9861506 52.9380694,17.5877131 C53.7519899,17.1892756 54.3858677,16.6321023 54.839703,15.9161932 C55.2935382,15.2002841 55.5204558,14.3650568 55.5204558,13.4105114 L55.5204558,13.4105114 L55.5204558,4.90909091 L52.7527001,4.90909091 L52.7527001,13.1740057 C52.7527001,13.6725852 52.64297,14.115767 52.4235098,14.5035511 C52.2040495,14.8913352 51.8951007,15.1960227 51.4966632,15.4176136 C51.0982257,15.6392045 50.630541,15.75 50.0936092,15.75 C49.5609387,15.75 49.0943194,15.6392045 48.6937512,15.4176136 C48.2931831,15.1960227 47.9831689,14.8913352 47.7637086,14.5035511 C47.5442484,14.115767 47.4345183,13.6725852 47.4345183,13.1740057 L47.4345183,13.1740057 L47.4345183,4.90909091 L44.6667626,4.90909091 L44.6667626,13.4105114 C44.6667626,14.3650568 44.8926149,15.2002841 45.3443194,15.9161932 C45.796024,16.6321023 46.4288365,17.1892756 47.2427569,17.5877131 C48.0566774,17.9861506 49.0069615,18.1853693 50.0936092,18.1853693 Z M64.0436179,18 L64.0436179,7.19105114 L68.0514304,7.19105114 L68.0514304,4.90909091 L57.30001,4.90909091 L57.30001,7.19105114 L61.3078225,7.19105114 L61.3078225,18 L64.0436179,18 Z M75.2578031,18.1853693 C76.3401895,18.1853693 77.2883429,17.9861506 78.1022634,17.5877131 C78.9161838,17.1892756 79.5500617,16.6321023 80.0038969,15.9161932 C80.4577321,15.2002841 80.6846497,14.3650568 80.6846497,13.4105114 L80.6846497,13.4105114 L80.6846497,4.90909091 L77.916894,4.90909091 L77.916894,13.1740057 C77.916894,13.6725852 77.8071639,14.115767 77.5877037,14.5035511 C77.3682435,14.8913352 77.0592946,15.1960227 76.6608571,15.4176136 C76.2624196,15.6392045 75.794735,15.75 75.2578031,15.75 C74.7251327,15.75 74.2585134,15.6392045 73.8579452,15.4176136 C73.457377,15.1960227 73.1473628,14.8913352 72.9279026,14.5035511 C72.7084423,14.115767 72.5987122,13.6725852 72.5987122,13.1740057 L72.5987122,13.1740057 L72.5987122,4.90909091 L69.8309565,4.90909091 L69.8309565,13.4105114 C69.8309565,14.3650568 70.0568088,15.2002841 70.5085134,15.9161932 C70.9602179,16.6321023 71.5930304,17.1892756 72.4069509,17.5877131 C73.2208713,17.9861506 74.1711554,18.1853693 75.2578031,18.1853693 Z M85.7305391,18 L85.73,13.36 L87.751,13.36 L90.2305391,18 L93.2859369,18 L90.508,12.914 L90.630042,12.8607955 C91.2607238,12.5653409 91.7592507,12.1545665 92.1256228,11.6284722 L92.2568176,11.4257812 C92.6318176,10.8014915 92.8193176,10.0546875 92.8193176,9.18536932 C92.8193176,8.3203125 92.6350136,7.56711648 92.2664056,6.92578125 C91.8977977,6.28444602 91.3629965,5.78799716 90.6620022,5.43643466 C89.9610079,5.08487216 89.1161926,4.90909091 88.1275562,4.90909091 L88.1275562,4.90909091 L82.9627835,4.90909091 L82.9627835,18 L85.7305391,18 Z M85.7305391,7.171875 L87.5970164,7.171875 C88.1296869,7.171875 88.5718034,7.24964489 88.9233659,7.40518466 C89.2749284,7.56072443 89.5370022,7.78764205 89.7095874,8.0859375 C89.8821727,8.38423295 89.9684653,8.75071023 89.9684653,9.18536932 C89.9684653,9.61576705 89.8821727,9.97585227 89.7095874,10.265625 C89.5370022,10.5553977 89.2759937,10.7727273 88.9265619,10.9176136 C88.5771301,11.0625 88.1382096,11.1349432 87.6098005,11.1349432 L87.6098005,11.1349432 L85.73,11.135 L85.7305391,7.171875 Z M103.621862,18 L103.621862,15.7180398 L97.5430267,15.7180398 L97.5430267,12.5923295 L103.142458,12.5923295 L103.142458,10.3103693 L97.5430267,10.3103693 L97.5430267,7.19105114 L103.596294,7.19105114 L103.596294,4.90909091 L94.775271,4.90909091 L94.775271,18 L103.621862,18 Z M115.39987,18.1853693 C116.482257,18.1853693 117.43041,17.9861506 118.244331,17.5877131 C119.058251,17.1892756 119.692129,16.6321023 120.145964,15.9161932 C120.599799,15.2002841 120.826717,14.3650568 120.826717,13.4105114 L120.826717,13.4105114 L120.826717,4.90909091 L118.058961,4.90909091 L118.058961,13.1740057 C118.058961,13.6725852 117.949231,14.115767 117.729771,14.5035511 C117.510311,14.8913352 117.201362,15.1960227 116.802924,15.4176136 C116.404487,15.6392045 115.936802,15.75 115.39987,15.75 C114.8672,15.75 114.400581,15.6392045 114.000012,15.4176136 C113.599444,15.1960227 113.28943,14.8913352 113.06997,14.5035511 C112.85051,14.115767 112.74078,13.6725852 112.74078,13.1740057 L112.74078,13.1740057 L112.74078,4.90909091 L109.973024,4.90909091 L109.973024,13.4105114 C109.973024,14.3650568 110.198876,15.2002841 110.650581,15.9161932 C111.102285,16.6321023 111.735098,17.1892756 112.549018,17.5877131 C113.362939,17.9861506 114.313223,18.1853693 115.39987,18.1853693 Z M125.872606,18 L125.872606,4.90909091 L123.104851,4.90909091 L123.104851,18 L125.872606,18 Z" id="FUTUREUI" fill="#182150" fill-rule="nonzero"></path>
        </g>
    </g>
</svg>